<?xml version="1.0" encoding="UTF-8"?>
<svg id="Layer_2" data-name="Layer 2" xmlns="http://www.w3.org/2000/svg" version="1.1" viewBox="0 0 126.8 136.2">
  <defs>
    <style>
      .cls-1 {
        font-family: JetBrainsMono-SemiBold, 'JetBrains Mono';
        font-size: 13.2px;
        font-weight: 600;
      }

      .cls-1, .cls-2 {
        isolation: isolate;
      }

      .cls-1, .cls-3 {
        fill: #fff;
      }

      .cls-4, .cls-5, .cls-6, .cls-7, .cls-8 {
        fill: none;
        stroke: #fff;
      }

      .cls-4, .cls-7 {
        stroke-miterlimit: 10;
      }

      .cls-5, .cls-6 {
        stroke-linejoin: bevel;
      }

      .cls-5, .cls-7 {
        stroke-width: 1.1px;
      }

      .cls-3 {
        stroke-width: 0px;
      }

      .cls-6 {
        stroke-width: 1.1px;
      }

      .cls-8 {
        stroke-miterlimit: 10;
        stroke-width: 1px;
      }
    </style>
  </defs>
  <g id="Layer_1-2" data-name="Layer 1-2">
    <polyline class="cls-4" points="28.7 34.4 21.2 32.2 .8 106.3 103.3 135.5 124.5 61.7 117.2 59.6"/>
    <path class="cls-6" d="M99,19.2l-9.5-15.8c-1.6-2.6-4.9-3.6-7.7-2.2l-16.8,8.6"/>
    <path class="cls-6" d="M117.2,59.6c4.6,1.3,7.3,2.1,7.3,2.1l-5.4-9"/>
    <path class="cls-6" d="M30.5,27.5l-9.3,4.8s2.8.8,7.4,2.1"/>
    <line class="cls-8" x1="86.5" y1="82.1" x2="43.3" y2="70.3"/>
    <polyline class="cls-8" points="26.5 42.1 37.4 2.4 126.2 26.7 115.1 67.3"/>
    <g class="cls-2">
      <text class="cls-1" transform="translate(39.4 23.2) rotate(14.8)"><tspan x="0" y="0">LET’S WORK </tspan></text>
      <text class="cls-1" transform="translate(39.1 39.5) rotate(14.8)"><tspan x="0" y="0">TOGETHER!</tspan></text>
    </g>
    <path class="cls-3" d="M62,60.7c1.1-4.2,5.4-6.7,9.6-5.6,4.2,1.1,6.7,5.4,5.5,9.6-1.1,4.2-5.4,6.7-9.5,5.6-4.2-1.1-6.7-5.4-5.6-9.6ZM67.9,68.8c3.4.9,6.8-1.1,7.7-4.5.9-3.4-1.1-6.8-4.4-7.7-3.4-.9-6.8,1.1-7.7,4.5-.9,3.4,1.1,6.8,4.5,7.7ZM66.3,62.1c-.3,1.2.4,3.1,2.5,3.6,2,.5,3.6-.7,3.9-1.9l1.1.3c-.6,2.3-2.9,3.7-5.4,3-2.5-.7-3.8-3-3.2-5.3l1.1.3h0ZM68.9,58.1c.6.2.8,1,.5,2.3-.3,1.3-1,1.9-1.5,1.7-.6-.2-.8-1-.5-2.3.3-1.3,1-1.9,1.5-1.7h0ZM72.4,59c.6.2.8,1,.5,2.3-.3,1.3-1,1.9-1.5,1.7-.6-.2-.8-1-.5-2.3.3-1.3,1-1.9,1.5-1.7h0Z"/>
    <path class="cls-7" d="M72,89.6l51.9-26.9-20.8,72.8h0L.7,106.3,21.4,33.5l30,50.3"/>
    <path class="cls-5" d="M103.3,135.5l-24.3-38.3c-7.9-12.5-24-17.1-37.4-10.7L.8,106.3l102.5,29.2Z"/>
  </g>
</svg>