<?xml version="1.0" encoding="UTF-8"?>
<svg id="Layer_2" data-name="Layer 2" xmlns="http://www.w3.org/2000/svg" version="1.1" viewBox="0 0 126.8 136.2">
  <defs>
    <style>
      .cls-1 {
        stroke-miterlimit: 10;
      }

      .cls-1, .cls-2, .cls-3, .cls-4, .cls-5 {
        fill: #fff;
      }

      .cls-1, .cls-2, .cls-3, .cls-5 {
        stroke: #6a37cc;
      }

      .cls-1, .cls-3 {
        stroke-width: 1.1px;
      }

      .cls-6 {
        fill: #6a37bc;
      }

      .cls-6, .cls-4 {
        stroke-width: 0px;
      }

      .cls-7 {
        isolation: isolate;
      }

      .cls-2 {
        stroke-miterlimit: 10;
        stroke-width: 1px;
      }

      .cls-3, .cls-5 {
        stroke-linejoin: bevel;
      }

      .cls-5 {
        stroke-width: 1.1px;
      }
    </style>
  </defs>
  <g id="Layer_1-2" data-name="Layer 1-2">
    <polygon class="cls-4" points="21.2 32.2 .8 106.3 103.3 135.5 124.5 61.7 21.2 32.2"/>
    <path class="cls-5" d="M124.5,61.7L89.4,3.4c-1.6-2.6-4.9-3.6-7.7-2.2l-60.6,31s103.3,29.5,103.3,29.5Z"/>
    <rect class="cls-2" x="41.4" y="-.7" width="63.9" height="92" transform="translate(10.3 104.1) rotate(-74.7)"/>
    <g class="cls-7">
      <g class="cls-7">
        <path class="cls-6" d="M40.7,23.5l2.5-9.3,1.5.4-2.1,7.9,4,1.1-.4,1.4-5.5-1.5Z"/>
        <path class="cls-6" d="M48.2,25.5l2.5-9.3,5.5,1.5-.3,1.3-4.1-1.1-.7,2.5,3.6,1-.3,1.3-3.6-1-.8,2.9,4.1,1.1-.3,1.3-5.5-1.5Z"/>
        <path class="cls-6" d="M57.8,28l2.1-8-2.5-.7.4-1.4,6.4,1.7-.4,1.4-2.5-.7-2.1,8-1.5-.4Z"/>
        <path class="cls-6" d="M65.8,23.8l2.1-3.7,1.9.5-2.7,3.5-1.3-.3Z"/>
        <path class="cls-6" d="M73.8,32.4c-.6-.2-1.1-.4-1.6-.8-.4-.3-.7-.7-.8-1.2-.1-.5-.2-1,0-1.5l1.5.4c-.1.4,0,.8.2,1.1.2.3.6.5,1.1.7.5.1.9.1,1.2,0s.6-.4.7-.8c0-.3,0-.6,0-.9-.1-.3-.3-.5-.7-.7l-1-.6c-.7-.4-1.1-.9-1.4-1.4s-.3-1.2-.1-1.9c.1-.5.4-1,.7-1.3.3-.3.7-.5,1.2-.6s1,0,1.6,0c.9.2,1.5.7,1.9,1.3s.5,1.3.3,2.1l-1.5-.4c.1-.4,0-.7-.1-1-.2-.3-.5-.5-1-.6-.4-.1-.8,0-1.1,0-.3.1-.5.4-.6.8,0,.3,0,.7,0,.9.1.3.3.5.7.7l1.1.6c.7.4,1.1.8,1.4,1.4.3.6.3,1.2.1,1.9-.1.5-.4,1-.7,1.3-.4.3-.8.5-1.3.6-.5.1-1.1,0-1.7,0Z"/>
        <path class="cls-6" d="M86.5,35.6l1.5-9.6,1.3.3-1.1,6.8c0,.2,0,.3-.1.6,0,.2,0,.4-.1.6,0,.2,0,.4-.1.5,0-.1.1-.3.2-.5,0-.2.1-.4.2-.6,0-.2.1-.4.2-.5l2.5-6.4,1.3.3-1,6.8c0,.2,0,.3,0,.6,0,.2,0,.4,0,.6s0,.4,0,.5c0-.2.1-.3.2-.5,0-.2.1-.4.2-.6,0-.2.1-.4.2-.5l2.3-6.4,1.3.3-3.5,9.1-1.7-.4,1-6.8c0-.2,0-.4.1-.6,0-.2,0-.4.1-.6,0-.2,0-.4,0-.5,0,.1-.1.3-.2.5,0,.2-.1.4-.2.6,0,.2-.1.4-.2.6l-2.5,6.4-1.7-.4Z"/>
        <path class="cls-6" d="M96.8,38.5c-.6-.2-1.1-.4-1.4-.7-.4-.3-.6-.7-.7-1.2-.1-.5-.1-1,0-1.5l1.1-4.1c.1-.6.4-1,.7-1.4.3-.3.8-.6,1.2-.7.5-.1,1,0,1.6,0,.6.2,1.1.4,1.4.7.4.3.6.7.7,1.2.1.5.1,1,0,1.5l-1.1,4.1c-.1.6-.4,1-.7,1.4-.3.4-.8.6-1.2.7-.5.1-1,0-1.6,0ZM97.1,37.2c.5.1.8,0,1.1,0,.3-.2.5-.5.6-1l1.1-4.1c.1-.5,0-.8,0-1.1-.2-.3-.5-.5-.9-.6s-.8,0-1.1,0c-.3.2-.5.5-.6,1l-1.1,4.1c-.1.5,0,.8,0,1.1.2.3.5.5.9.6Z"/>
        <path class="cls-6" d="M101.7,39.6l2.5-9.3,2.9.8c.6.2,1.1.4,1.5.8s.7.8.8,1.2c.1.5.1,1,0,1.5-.2.6-.5,1.1-.9,1.5-.4.4-.9.6-1.5.6l.8,4.5-1.7-.4-.7-4.2-1.2-.3-1,3.8-1.5-.4ZM104.5,34.9l1.5.4c.5.1.8,0,1.2-.1.3-.2.6-.5.7-1s0-.8-.1-1.2-.5-.6-1-.7l-1.5-.4-.8,2.9Z"/>
        <path class="cls-6" d="M109.3,41.6l2.5-9.3,1.5.4-1,3.8,1.2.3,2.8-3.3,1.6.4-3.3,3.9,1,5.4-1.7-.4-.8-4.7-1.2-.3-1.1,4.2-1.5-.4Z"/>
      </g>
      <g class="cls-7">
        <path class="cls-6" d="M42.2,40.3l2.1-8-2.5-.7.4-1.4,6.4,1.7-.4,1.4-2.5-.7-2.1,8-1.5-.4Z"/>
        <path class="cls-6" d="M50.6,42.7c-.6-.2-1.1-.4-1.4-.7-.4-.3-.6-.7-.7-1.2s-.1-1,0-1.5l1.1-4.1c.1-.6.4-1,.7-1.4s.8-.6,1.2-.7c.5-.1,1,0,1.6,0,.6.2,1.1.4,1.4.7.4.3.6.7.7,1.2.1.5.1,1,0,1.5l-1.1,4.1c-.1.6-.4,1-.7,1.4s-.8.6-1.2.7c-.5.1-1,0-1.6,0ZM50.9,41.4c.5.1.8,0,1.1,0,.3-.2.5-.5.6-1l1.1-4.1c.1-.5,0-.8,0-1.1-.2-.3-.5-.5-.9-.6s-.8,0-1.1,0c-.3.2-.5.5-.6,1l-1.1,4.1c-.1.5,0,.8,0,1.1.2.3.5.5.9.6Z"/>
        <path class="cls-6" d="M58.3,44.7c-.6-.2-1.1-.4-1.5-.7-.4-.3-.6-.7-.8-1.2-.1-.5-.1-1,0-1.5l1.1-4.1c.1-.6.4-1,.7-1.4.3-.3.8-.6,1.3-.7.5-.1,1,0,1.6,0,.6.2,1.1.4,1.5.7.4.3.6.7.8,1.2s.1,1,0,1.5l-1.5-.4c.1-.5,0-.8,0-1.2-.2-.3-.5-.5-1-.6-.5-.1-.8,0-1.1,0s-.5.5-.7,1l-1.1,4.1c-.1.5,0,.8,0,1.2.2.3.5.5,1,.7.5.1.8,0,1.1-.1.3-.2.5-.5.7-1l.3-1-1.7-.4.3-1.3,3.2.8-.6,2.3c-.1.6-.4,1-.7,1.3-.3.3-.8.6-1.3.7-.5.1-1,0-1.6,0Z"/>
        <path class="cls-6" d="M63.3,45.9l2.5-9.3,5.5,1.5-.3,1.3-4.1-1.1-.7,2.5,3.6,1-.3,1.3-3.6-1-.8,2.9,4.1,1.1-.3,1.3-5.5-1.5Z"/>
        <path class="cls-6" d="M72.9,48.4l2.1-8-2.5-.7.4-1.4,6.4,1.7-.4,1.4-2.5-.7-2.1,8-1.5-.4Z"/>
        <path class="cls-6" d="M78.5,49.9l2.5-9.3,1.5.4-1,3.8,2.6.7,1-3.8,1.5.4-2.5,9.3-1.5-.4,1.1-4.1-2.6-.7-1.1,4.1-1.5-.4Z"/>
        <path class="cls-6" d="M86.3,52l2.5-9.3,5.5,1.5-.3,1.3-4.1-1.1-.7,2.5,3.6,1-.3,1.3-3.6-1-.8,2.9,4.1,1.1-.3,1.3-5.5-1.5Z"/>
        <path class="cls-6" d="M93.8,53.9l2.5-9.3,2.9.8c.6.2,1.1.4,1.5.8s.7.8.8,1.2.1,1,0,1.5c-.2.6-.5,1.1-.9,1.5s-.9.6-1.5.6l.8,4.5-1.7-.4-.7-4.2-1.2-.3-1,3.8-1.5-.4ZM96.6,49.2l1.5.4c.5.1.8,0,1.2-.1.3-.2.6-.5.7-1s0-.8-.1-1.2-.5-.6-1-.7l-1.5-.4-.8,2.9Z"/>
        <path class="cls-6" d="M104.1,56.7c-.3,0-.4-.2-.6-.4-.1-.2-.1-.4,0-.6,0-.2.2-.4.4-.5s.4-.1.7,0h.4c.3.2.5.3.6.5.1.2.1.4,0,.7,0,.2-.2.4-.4.5-.2.1-.4.1-.7,0h-.4ZM104.5,53.6l1-4.8.4-1.7,1.7.4-.4,1.7-1.5,4.6-1.1-.3Z"/>
      </g>
    </g>
    <path class="cls-6" d="M62,60.7c1.1-4.2,5.4-6.7,9.6-5.6,4.2,1.1,6.7,5.4,5.5,9.6-1.1,4.2-5.4,6.7-9.5,5.6-4.2-1.1-6.7-5.4-5.6-9.6ZM67.9,68.8c3.4.9,6.8-1.1,7.7-4.5.9-3.4-1.1-6.8-4.4-7.7-3.4-.9-6.8,1.1-7.7,4.5-.9,3.4,1.1,6.8,4.5,7.7ZM66.3,62.1c-.3,1.2.4,3.1,2.5,3.6,2,.5,3.6-.7,3.9-1.9l1.1.3c-.6,2.3-2.9,3.7-5.4,3-2.5-.7-3.8-3-3.2-5.3l1.1.3h0ZM68.9,58.1c.6.2.8,1,.5,2.3-.3,1.3-1,1.9-1.5,1.7-.6-.2-.8-1-.5-2.3.3-1.3,1-1.9,1.5-1.7h0ZM72.4,59c.6.2.8,1,.5,2.3-.3,1.3-1,1.9-1.5,1.7-.6-.2-.8-1-.5-2.3.3-1.3,1-1.9,1.5-1.7h0Z"/>
    <path class="cls-1" d="M103.2,135.5L.7,106.3,21.4,33.5l34.7,58.2c1.6,2.6,4.9,3.6,7.6,2.2l60.2-31.2-20.8,72.8h0Z"/>
    <path class="cls-3" d="M103.3,135.5l-24.3-38.3c-7.9-12.5-24-17.1-37.4-10.7L.8,106.3l102.5,29.2Z"/>
  </g>
</svg>