<?xml version="1.0" encoding="UTF-8"?><svg id="Layer_2" xmlns="http://www.w3.org/2000/svg" viewBox="0 0 126.79 136.18"><defs><style>.cls-1,.cls-2{stroke-width:1.11px;}.cls-1,.cls-2,.cls-3,.cls-4,.cls-5{fill:#fff;}.cls-1,.cls-2,.cls-3,.cls-5{stroke:#6a37cc;}.cls-1,.cls-5{stroke-linejoin:bevel;}.cls-6,.cls-7{fill:#6a37bc;}.cls-6,.cls-4{stroke-width:0px;}.cls-7{font-family:JetBrainsMono-SemiBold, 'JetBrains Mono';font-size:13.21px;font-weight:600;}.cls-2,.cls-3{stroke-miterlimit:10;}.cls-3{stroke-width:.98px;}.cls-5{stroke-width:1.12px;}</style></defs><g id="Layer_1-2"><polygon class="cls-4" points="21.22 32.25 .81 106.3 103.29 135.53 124.51 61.72 21.22 32.25"/><path class="cls-5" d="M124.51,61.72L89.45,3.39c-1.58-2.63-4.95-3.59-7.68-2.19l-60.56,31.05,103.3,29.47Z"/><rect class="cls-3" x="27.34" y="13.38" width="92.05" height="63.93" transform="translate(14.56 -17.75) rotate(15.3)"/><text class="cls-7" transform="translate(39.35 23.17) rotate(14.79)"><tspan x="0" y="0">LET’S WORK </tspan><tspan x="3.96" y="15.85">TOGETHER!</tspan></text><path class="cls-6" d="M61.96,60.74c1.1-4.17,5.37-6.66,9.57-5.56,4.15,1.09,6.65,5.36,5.54,9.55-1.1,4.18-5.37,6.68-9.54,5.58-4.18-1.1-6.68-5.37-5.57-9.57ZM67.92,68.85c3.36.89,6.78-1.14,7.67-4.51.89-3.36-1.12-6.79-4.45-7.68-3.37-.89-6.81,1.11-7.7,4.47-.89,3.37,1.11,6.83,4.48,7.72ZM66.29,62.07c-.32,1.22.42,3.07,2.47,3.62,2.03.54,3.57-.68,3.9-1.93l1.12.3c-.61,2.31-2.92,3.67-5.38,3.02-2.48-.65-3.83-2.98-3.22-5.29l1.12.3ZM68.89,58.07c.55.15.81.97.47,2.26-.34,1.29-.97,1.88-1.53,1.73-.57-.15-.83-.97-.49-2.27.34-1.29.97-1.88,1.54-1.73ZM72.37,58.99c.57.15.83.97.49,2.27-.34,1.29-.97,1.88-1.54,1.73-.55-.15-.83-.97-.49-2.26.34-1.29.99-1.87,1.54-1.73Z"/><path class="cls-2" d="M103.16,135.49L.69,106.26,21.44,33.5l34.68,58.22c1.56,2.63,4.9,3.58,7.62,2.17l60.18-31.16-20.75,72.76Z"/><path class="cls-1" d="M103.29,135.53l-24.26-38.27c-7.95-12.54-24.04-17.13-37.41-10.67L.81,106.3l102.48,29.23Z"/></g></svg>