<?xml version="1.0" encoding="UTF-8"?>
<svg id="Layer_2" data-name="Layer 2" xmlns="http://www.w3.org/2000/svg" version="1.1" viewBox="0 0 126.8 136.2">
  <defs>
    <style>
      .cls-1 {
        isolation: isolate;
      }

      .cls-2 {
        fill: none;
      }

      .cls-2, .cls-3, .cls-4, .cls-5 {
        stroke: #fff;
      }

      .cls-2, .cls-3, .cls-5 {
        stroke-miterlimit: 10;
      }

      .cls-3, .cls-6, .cls-4, .cls-5 {
        fill: #231f20;
      }

      .cls-6, .cls-7 {
        stroke-width: 0px;
      }

      .cls-4 {
        stroke-linejoin: bevel;
      }

      .cls-4, .cls-5 {
        stroke-width: 1.1px;
      }

      .cls-7 {
        fill: #fff;
      }
    </style>
  </defs>
  <polygon class="cls-6" points="21.2 33.5 53.6 87.3 73 95 114.7 70.3 124.5 61.8 21.4 32.2 21.2 33.5"/>
  <g id="Layer_1-2" data-name="Layer 1-2">
    <polyline class="cls-2" points="28.7 34.4 21.2 32.2 .8 106.3 103.3 135.5 124.5 61.7 117.2 59.6"/>
    <path class="cls-4" d="M99,19.2l-9.5-15.8c-1.6-2.6-4.9-3.6-7.7-2.2l-16.8,8.6"/>
    <path class="cls-4" d="M117.2,59.6c4.6,1.3,7.3,2.1,7.3,2.1l-5.4-9"/>
    <path class="cls-4" d="M30.5,27.5l-9.3,4.8s2.8.8,7.4,2.1"/>
    <line class="cls-2" x1="86.5" y1="82.1" x2="43.3" y2="70.3"/>
    <polyline class="cls-3" points="26.5 42.1 37.4 2.4 126.2 26.7 115.1 67.3"/>
    <g class="cls-1">
      <g class="cls-1">
        <g class="cls-1">
          <g class="cls-1">
            <path class="cls-7" d="M40.8,23.6l2.5-9.3,1.5.4-2.1,7.9,4,1.1-.4,1.4-5.5-1.5Z"/>
            <path class="cls-7" d="M48.2,25.5l2.5-9.3,5.5,1.5-.3,1.3-4.1-1.1-.7,2.5,3.6,1-.3,1.3-3.6-1-.8,2.9,4.1,1.1-.3,1.3-5.5-1.5Z"/>
            <path class="cls-7" d="M57.8,28.1l2.1-8-2.5-.7.4-1.4,6.4,1.7-.4,1.4-2.5-.7-2.1,8-1.5-.4Z"/>
            <path class="cls-7" d="M65.8,23.8l2.1-3.7,1.9.5-2.7,3.5-1.3-.3Z"/>
            <path class="cls-7" d="M73.8,32.4c-.6-.2-1.1-.4-1.5-.8-.4-.3-.7-.7-.8-1.2-.1-.5-.2-1,0-1.5l1.5.4c-.1.4,0,.8.2,1.1.2.3.6.5,1.1.7.5.1.9.1,1.2,0,.3-.2.5-.4.7-.8,0-.3,0-.6,0-.9s-.3-.5-.7-.7l-1-.6c-.7-.4-1.1-.9-1.4-1.4s-.3-1.2-.1-1.9c.1-.5.4-1,.7-1.3.3-.3.7-.5,1.2-.6.5-.1,1,0,1.6,0,.9.2,1.5.7,1.9,1.3.4.6.5,1.3.3,2.1l-1.5-.4c.1-.4,0-.7-.1-1-.2-.3-.5-.5-1-.6-.4-.1-.8,0-1.1,0-.3.1-.5.4-.6.8,0,.3,0,.7,0,.9s.3.5.6.7l1.1.6c.7.4,1.1.8,1.4,1.4.3.6.3,1.2.1,1.9-.1.5-.4,1-.7,1.3-.4.3-.8.5-1.3.6-.5.1-1.1,0-1.7,0Z"/>
            <path class="cls-7" d="M86.6,35.7l1.5-9.6,1.3.3-1.1,6.8c0,.2,0,.3-.1.5,0,.2,0,.4-.1.6,0,.2,0,.4-.1.5,0-.1.1-.3.2-.5,0-.2.1-.4.2-.6,0-.2.1-.4.2-.5l2.5-6.4,1.3.3-1,6.8c0,.2,0,.3,0,.6,0,.2,0,.4,0,.6,0,.2,0,.4,0,.5,0-.2.1-.3.2-.5,0-.2.1-.4.2-.6,0-.2.1-.4.2-.5l2.3-6.4,1.3.3-3.5,9-1.7-.4,1-6.8c0-.2,0-.4.1-.6s0-.4.1-.6c0-.2,0-.4,0-.5,0,.1-.1.3-.2.5s-.1.4-.2.6-.1.4-.2.6l-2.5,6.4-1.7-.4Z"/>
            <path class="cls-7" d="M96.8,38.5c-.6-.2-1.1-.4-1.4-.7-.4-.3-.6-.7-.7-1.2-.1-.5-.1-1,0-1.5l1.1-4.1c.1-.6.4-1,.7-1.4.3-.3.8-.6,1.2-.7.5-.1,1,0,1.6,0,.6.2,1.1.4,1.4.7.4.3.6.7.7,1.2.1.5.1,1,0,1.5l-1.1,4.1c-.1.6-.4,1-.7,1.4s-.8.6-1.2.7c-.5.1-1,0-1.6,0ZM97.1,37.2c.5.1.8,0,1.1,0s.5-.5.6-1l1.1-4.1c.1-.5,0-.8,0-1.1s-.5-.5-.9-.6c-.5-.1-.8,0-1.1,0-.3.2-.5.5-.6,1l-1.1,4.1c-.1.5,0,.8,0,1.1.2.3.5.5.9.6Z"/>
            <path class="cls-7" d="M101.7,39.7l2.5-9.3,2.9.8c.6.2,1.1.4,1.5.8.4.3.6.8.8,1.2.1.5.1,1,0,1.5-.2.6-.5,1.1-.9,1.5-.4.4-.9.6-1.5.6l.8,4.5-1.7-.4-.7-4.2-1.2-.3-1,3.8-1.5-.4ZM104.5,35l1.5.4c.5.1.8,0,1.2-.1.3-.2.6-.5.7-1s0-.8-.1-1.2c-.2-.3-.5-.6-1-.7l-1.5-.4-.8,2.9Z"/>
            <path class="cls-7" d="M109.3,41.7l2.5-9.3,1.5.4-1,3.8,1.2.3,2.8-3.3,1.6.4-3.3,3.9,1,5.4-1.7-.4-.8-4.6-1.1-.3-1.1,4.1-1.5-.4Z"/>
          </g>
        </g>
      </g>
      <g class="cls-1">
        <g class="cls-1">
          <g class="cls-1">
            <path class="cls-7" d="M42.2,40.3l2.1-8-2.5-.7.4-1.4,6.4,1.7-.4,1.4-2.5-.7-2.1,8-1.5-.4Z"/>
            <path class="cls-7" d="M50.6,42.7c-.6-.2-1.1-.4-1.4-.7-.4-.3-.6-.7-.7-1.2-.1-.5-.1-1,0-1.5l1.1-4.1c.1-.6.4-1,.7-1.4.3-.3.8-.6,1.2-.7.5-.1,1,0,1.6,0,.6.2,1.1.4,1.4.7.4.3.6.7.7,1.2.1.5.1,1,0,1.5l-1.1,4.1c-.1.6-.4,1-.7,1.4-.3.4-.8.6-1.2.7s-1,0-1.6,0ZM50.9,41.3c.5.1.8,0,1.1,0,.3-.2.5-.5.6-1l1.1-4.1c.1-.5,0-.8,0-1.1-.2-.3-.5-.5-.9-.6s-.8,0-1.1,0c-.3.2-.5.5-.6,1l-1.1,4.1c-.1.5,0,.8,0,1.1s.5.5.9.6Z"/>
            <path class="cls-7" d="M58.3,44.7c-.6-.2-1.1-.4-1.4-.7-.4-.3-.6-.7-.8-1.2-.1-.5-.1-1,0-1.5l1.1-4.1c.1-.6.4-1,.7-1.4.3-.3.8-.6,1.3-.7.5-.1,1,0,1.6,0,.6.2,1.1.4,1.4.7s.6.7.8,1.2c.1.5.1,1,0,1.5l-1.5-.4c.1-.5,0-.8,0-1.2-.2-.3-.5-.5-1-.6-.5-.1-.8,0-1.1,0-.3.2-.5.5-.7,1l-1.1,4.1c-.1.5,0,.8,0,1.2.2.3.5.5,1,.7.5.1.8,0,1.1,0,.3-.2.5-.5.7-1l.3-1-1.7-.4.3-1.3,3.2.8-.6,2.3c-.1.6-.4,1-.7,1.3-.3.3-.8.6-1.3.7-.5.1-1,0-1.6,0Z"/>
            <path class="cls-7" d="M63.2,45.9l2.5-9.3,5.5,1.5-.3,1.3-4.1-1.1-.7,2.5,3.6,1-.3,1.3-3.6-1-.8,2.9,4.1,1.1-.3,1.3-5.5-1.5Z"/>
            <path class="cls-7" d="M72.8,48.4l2.1-8-2.5-.7.4-1.4,6.4,1.7-.4,1.4-2.5-.7-2.1,8-1.5-.4Z"/>
            <path class="cls-7" d="M78.4,49.9l2.5-9.3,1.5.4-1,3.8,2.6.7,1-3.8,1.5.4-2.5,9.3-1.5-.4,1.1-4.1-2.6-.7-1.1,4.1-1.5-.4Z"/>
            <path class="cls-7" d="M86.2,51.9l2.5-9.3,5.5,1.5-.3,1.3-4.1-1.1-.7,2.5,3.6,1-.3,1.3-3.6-1-.8,2.9,4.1,1.1-.3,1.3-5.5-1.5Z"/>
            <path class="cls-7" d="M93.7,53.9l2.5-9.3,2.9.8c.6.2,1.1.4,1.5.8.4.3.7.8.8,1.2.1.5.1,1,0,1.5-.2.6-.5,1.1-.9,1.5-.4.4-.9.6-1.5.6l.8,4.5-1.7-.4-.7-4.2-1.2-.3-1,3.8-1.5-.4ZM96.5,49.2l1.5.4c.5.1.8,0,1.2-.1.3-.2.6-.5.7-1,.1-.5,0-.8-.1-1.2-.2-.3-.5-.6-1-.7l-1.5-.4-.8,2.9Z"/>
            <path class="cls-7" d="M104,56.7c-.3,0-.4-.2-.6-.4s-.1-.4,0-.6c0-.2.2-.4.4-.5.2-.1.4-.1.7,0h.4c.3.2.5.3.6.5.1.2.1.4,0,.7,0,.2-.2.4-.4.5-.2.1-.4.1-.7,0h-.4ZM104.4,53.6l1-4.8.4-1.7,1.7.4-.4,1.7-1.5,4.6-1.1-.3Z"/>
          </g>
        </g>
      </g>
    </g>
    <path class="cls-7" d="M62,60.7c1.1-4.2,5.4-6.7,9.6-5.6,4.2,1.1,6.7,5.4,5.5,9.6-1.1,4.2-5.4,6.7-9.5,5.6-4.2-1.1-6.7-5.4-5.6-9.6ZM67.9,68.8c3.4.9,6.8-1.1,7.7-4.5.9-3.4-1.1-6.8-4.4-7.7-3.4-.9-6.8,1.1-7.7,4.5-.9,3.4,1.1,6.8,4.5,7.7h0ZM66.3,62.1c-.3,1.2.4,3.1,2.5,3.6,2,.5,3.6-.7,3.9-1.9l1.1.3c-.6,2.3-2.9,3.7-5.4,3s-3.8-3-3.2-5.3l1.1.3h0ZM68.9,58.1c.6.2.8,1,.5,2.3s-1,1.9-1.5,1.7c-.6-.2-.8-1-.5-2.3s1-1.9,1.5-1.7h0ZM72.4,59c.6.2.8,1,.5,2.3s-1,1.9-1.5,1.7c-.6-.2-.8-1-.5-2.3s1-1.9,1.5-1.7h0Z"/>
    <path class="cls-5" d="M72,89.6l51.9-26.9-20.8,72.8h0L.7,106.3,21.4,33.5l30,50.3"/>
    <path class="cls-4" d="M103.3,135.5l-24.3-38.3c-7.9-12.5-24-17.1-37.4-10.7L.8,106.3l102.5,29.2Z"/>
  </g>
</svg>