<svg viewBox="0 0 34 34" fill="none" xmlns="http://www.w3.org/2000/svg">
<g clip-path="url(#clip0_143_1125)">
<path d="M17.0002 33.9937C26.3855 33.9937 33.9937 26.3855 33.9937 17.0002C33.9937 7.61491 26.3855 0.00663757 17.0002 0.00663757C7.61491 0.00663757 0.00663757 7.61491 0.00663757 17.0002C0.00663757 26.3855 7.61491 33.9937 17.0002 33.9937Z" fill="#6A37CC"/>
<path d="M13.1986 12.8629C13.5471 12.9598 13.8311 13.1211 14.0311 13.3341C14.4506 12.7661 15.0444 12.5144 15.7931 12.6564C15.8964 12.6822 15.9803 12.6887 16.0577 12.7274C16.1223 11.5205 16.232 10.1716 16.3546 9.23577C16.6579 6.99621 19.7753 7.1511 19.814 9.39712C19.8462 9.99735 19.814 11.6496 19.7753 13.4632C20.5885 11.9336 21.3371 10.5588 21.6534 10.0361C22.8667 8.15794 25.5904 9.42293 24.7578 11.5011C24.306 12.5854 23.3573 14.6249 22.6086 16.2384C22.4021 16.6838 22.0987 18.336 21.8599 20.4142C22.3052 21.8276 21.6276 23.1765 19.814 24.7836C17.8519 26.5068 16.9419 26.7134 14.2699 25.9841C12.1724 25.4096 11.0623 24.4932 10.3717 22.7699C9.80372 21.3242 9.81663 18.7878 10.3975 16.3352C11.0752 13.4503 11.798 12.4886 13.1857 12.8694L13.1986 12.8629ZM12.0562 17.5938C12.6048 17.7422 12.863 17.4453 13.2502 16.0383C13.3664 15.6124 13.4438 15.2574 13.4503 14.9799V14.8895C13.489 14.2828 13.3018 13.9924 12.9146 13.8891C12.4693 13.7665 12.1336 14.0957 11.7529 15.4123C11.3721 16.9742 11.5011 17.4453 12.0562 17.5938ZM17.3872 20.2141C16.7677 21.1177 16.7999 21.9567 17.5163 22.5505L16.8128 23.3637C15.9803 22.6344 15.7092 21.6405 16.0254 20.6272C15.6834 20.6853 15.3671 20.7111 15.109 20.6853C13.6374 20.6143 12.5015 19.7946 12.4047 18.7168V18.6974C12.2111 18.7103 11.9981 18.6716 11.7787 18.6135C11.5141 18.5425 11.3011 18.4393 11.1204 18.3037C10.9332 19.9624 11.0042 21.4469 11.3656 22.3762C11.9271 23.7768 12.7661 24.4674 14.5604 24.9579C16.8838 25.5904 17.4453 25.4613 19.1234 23.9704C20.7046 22.5828 21.2016 21.5824 20.8273 20.6272C20.4529 19.672 18.8136 18.2134 18.3295 17.7551C18.1166 17.568 16.1868 17.6519 14.6314 17.9681C13.489 18.2263 13.418 18.3166 13.4503 18.6071C13.5019 19.1428 14.2312 19.5881 15.18 19.6526C15.7221 19.672 16.5999 19.4267 17.5034 19.0137L17.9423 19.9689C17.768 20.0528 17.568 20.1302 17.3937 20.2141H17.3872ZM14.2699 16.3159C14.1989 16.5805 14.1279 16.8257 14.0505 17.0452L14.4248 16.9484C15.0057 16.8257 15.5801 16.716 16.1029 16.6644C16.161 16.2191 16.2191 15.6705 16.2642 15.109C16.3481 14.2312 16.0964 13.7923 15.5995 13.702C15.038 13.5923 14.6572 14.0118 14.5087 15.1348C14.4765 15.4962 14.3926 15.8899 14.2699 16.3159ZM17.071 13.5987C17.3098 14.0118 17.4002 14.5668 17.3356 15.1864L17.1936 16.5934C18.052 16.5869 18.7168 16.7031 19.0137 16.9806C19.3428 17.2904 20.2658 18.0907 20.9693 18.962C21.1693 17.5938 21.4146 16.303 21.6405 15.7931C22.4085 14.186 23.3379 12.1595 23.7768 11.101C24.1317 10.2103 23.0604 9.79082 22.557 10.5911C22.1955 11.1913 21.0854 13.2566 19.6655 15.9544L18.6845 15.7092C18.762 12.5338 18.7878 10.1264 18.762 9.42293C18.7361 8.47419 17.5421 8.42901 17.4066 9.40357C17.2582 10.5008 17.1484 12.2692 17.071 13.6052V13.5987Z" fill="white"/>
</g>
<defs>
<clipPath id="clip0_143_1125">
<rect width="34" height="34" fill="white"/>
</clipPath>
</defs>
</svg>
