<svg viewBox="0 0 34 34" fill="none" xmlns="http://www.w3.org/2000/svg">
<g clip-path="url(#clip0_194_2536)">
<path d="M17.0001 33.9937C26.3854 33.9937 33.9937 26.3855 33.9937 17.0002C33.9937 7.61492 26.3854 0.00665283 17.0001 0.00665283C7.61486 0.00665283 0.0065918 7.61492 0.0065918 17.0002C0.0065918 26.3855 7.61486 33.9937 17.0001 33.9937Z" fill="white"/>
<path d="M13.1985 12.8629C13.547 12.9598 13.831 13.1211 14.0311 13.3341C14.4506 12.7661 15.0444 12.5144 15.793 12.6564C15.8963 12.6822 15.9802 12.6887 16.0577 12.7274C16.1222 11.5205 16.2319 10.1716 16.3546 9.23577C16.6579 6.99621 19.7752 7.1511 19.8139 9.39712C19.8462 9.99735 19.8139 11.6496 19.7752 13.4632C20.5884 11.9336 21.3371 10.5588 21.6533 10.0361C22.8667 8.15794 25.5903 9.42293 24.7577 11.5011C24.306 12.5854 23.3572 14.6249 22.6085 16.2384C22.402 16.6838 22.0987 18.336 21.8599 20.4142C22.3052 21.8276 21.6275 23.1765 19.8139 24.7836C17.8519 26.5068 16.9419 26.7134 14.2699 25.9841C12.1723 25.4096 11.0622 24.4932 10.3716 22.7699C9.80368 21.3242 9.81659 18.7878 10.3975 16.3352C11.0751 13.4503 11.798 12.4886 13.1856 12.8694L13.1985 12.8629ZM12.0561 17.5938C12.6047 17.7422 12.8629 17.4453 13.2501 16.0383C13.3663 15.6124 13.4438 15.2574 13.4502 14.9799V14.8895C13.4889 14.2828 13.3018 13.9924 12.9145 13.8891C12.4692 13.7665 12.1336 14.0957 11.7528 15.4123C11.372 16.9742 11.5011 17.4453 12.0561 17.5938ZM17.3872 20.2141C16.7676 21.1177 16.7999 21.9567 17.5163 22.5505L16.8128 23.3637C15.9802 22.6344 15.7091 21.6405 16.0254 20.6272C15.6833 20.6853 15.3671 20.7111 15.1089 20.6853C13.6374 20.6143 12.5015 19.7946 12.4047 18.7168V18.6974C12.211 18.7103 11.9981 18.6716 11.7786 18.6135C11.514 18.5425 11.301 18.4393 11.1203 18.3037C10.9331 19.9624 11.0041 21.4469 11.3656 22.3762C11.9271 23.7768 12.7661 24.4674 14.5603 24.9579C16.8838 25.5904 17.4453 25.4613 19.1233 23.9704C20.7046 22.5828 21.2016 21.5824 20.8272 20.6272C20.4529 19.672 18.8135 18.2134 18.3295 17.7551C18.1165 17.568 16.1867 17.6519 14.6313 17.9681C13.4889 18.2263 13.418 18.3166 13.4502 18.6071C13.5019 19.1428 14.2312 19.5881 15.1799 19.6526C15.7221 19.672 16.5998 19.4267 17.5034 19.0137L17.9423 19.9689C17.768 20.0528 17.5679 20.1302 17.3937 20.2141H17.3872ZM14.2699 16.3159C14.1989 16.5805 14.1279 16.8257 14.0505 17.0452L14.4248 16.9484C15.0057 16.8257 15.5801 16.716 16.1028 16.6644C16.1609 16.2191 16.219 15.6705 16.2642 15.109C16.3481 14.2312 16.0964 13.7923 15.5994 13.702C15.0379 13.5923 14.6571 14.0118 14.5087 15.1348C14.4764 15.4962 14.3925 15.8899 14.2699 16.3159ZM17.071 13.5987C17.3098 14.0118 17.4001 14.5668 17.3356 15.1864L17.1936 16.5934C18.052 16.5869 18.7167 16.7031 19.0136 16.9806C19.3428 17.2904 20.2657 18.0907 20.9692 18.962C21.1693 17.5938 21.4145 16.303 21.6404 15.7931C22.4085 14.186 23.3378 12.1595 23.7767 11.101C24.1317 10.2103 23.0603 9.79082 22.5569 10.5911C22.1955 11.1913 21.0854 13.2566 19.6655 15.9544L18.6845 15.7092C18.7619 12.5338 18.7877 10.1264 18.7619 9.42293C18.7361 8.47419 17.5421 8.42901 17.4066 9.40357C17.2581 10.5008 17.1484 12.2692 17.071 13.6052V13.5987Z" fill="#6A37BC"/>
</g>
<defs>
<clipPath id="clip0_194_2536">
<rect width="34" height="34" fill="white"/>
</clipPath>
</defs>
</svg>
