<svg viewBox="0 0 31 37" fill="none" xmlns="http://www.w3.org/2000/svg">
<g clip-path="url(#clip0_194_2533)">
<path d="M23.4054 35.7946C30.6326 32.5081 32.9524 22.1022 28.5866 12.5522C24.2209 3.00224 14.8229 -2.07534 7.59562 1.21111C0.36837 4.49755 -1.95134 14.9035 2.4144 24.4535C6.78015 34.0034 16.1781 39.081 23.4054 35.7946Z" fill="white" stroke="#6A37BC" stroke-width="0.66" stroke-miterlimit="10"/>
<path d="M7.66841 18.9479C7.41719 14.6447 10.7018 10.9365 15.0541 10.6797C19.3499 10.4292 23.0679 13.7114 23.3254 18.0271C23.5766 22.3491 20.292 26.0572 15.9774 26.3078C11.6439 26.5583 7.9259 23.2824 7.67469 18.9416L7.66841 18.9479ZM15.8894 24.8045C19.3688 24.604 22.0003 21.61 21.793 18.1273C21.592 14.6572 18.6088 12.0139 15.1484 12.2143C11.6565 12.421 8.99985 15.39 9.2071 18.8602C9.41435 22.3428 12.3975 25.0112 15.8894 24.8045ZM12.2091 18.8602C12.2845 20.1254 13.572 21.6538 15.6947 21.5285C17.7987 21.4032 18.8852 19.7747 18.8098 18.4718L19.9717 18.4029C20.1099 20.7831 18.3325 22.8001 15.7827 22.9504C13.2328 23.1007 11.198 21.3093 11.0535 18.9228L12.2154 18.8539L12.2091 18.8602ZM13.4464 14.2563C14.0179 14.225 14.5203 14.9265 14.602 16.2607C14.6773 17.5949 14.2565 18.3528 13.6913 18.3841C13.1009 18.4154 12.5985 17.7139 12.5169 16.3797C12.4415 15.0455 12.8623 14.2876 13.4464 14.2563ZM16.2788 16.8746C16.3165 16.6052 16.6494 16.2106 17.1706 16.1793C17.6856 16.148 18.0687 16.4987 18.1378 16.7681L18.7093 16.7368C18.6528 15.7596 17.9368 14.8889 17.1016 14.9391C16.2788 14.9892 15.6571 15.935 15.7136 16.9121L16.2851 16.8808L16.2788 16.8746Z" fill="#6A37BC"/>
</g>
<defs>
<clipPath id="clip0_194_2533">
<rect width="31" height="37" fill="white"/>
</clipPath>
</defs>
</svg>
