<?xml version="1.0" encoding="UTF-8"?>
<svg id="Layer_1" data-name="Layer 1" xmlns="http://www.w3.org/2000/svg" version="1.1" xmlns:xlink="http://www.w3.org/1999/xlink" viewBox="0 0 31 37">
  <defs>
    <style>
      .cls-1 {
        fill: #6a37bc;
      }

      .cls-1, .cls-2 {
        stroke-width: 0px;
      }

      .cls-3 {
        fill: #fff;
        stroke: #6a37bc;
        stroke-miterlimit: 10;
        stroke-width: .7px;
      }

      .cls-2 {
        fill: none;
      }

      .cls-4 {
        clip-path: url(#clippath);
      }
    </style>
    <clipPath id="clippath">
      <rect class="cls-2" y="0" width="31" height="37"/>
    </clipPath>
  </defs>
  <g class="cls-4">
    <g>
      <path class="cls-3" d="M23.4,35.8c7.2-3.3,9.5-13.7,5.2-23.2C24.2,3,14.8-2.1,7.6,1.2.4,4.5-2,14.9,2.4,24.5c4.4,9.5,13.8,14.6,21,11.3Z"/>
      <path class="cls-1" d="M7.7,18.9c-.3-4.3,3-8,7.4-8.3,4.3-.3,8,3,8.3,7.3.3,4.3-3,8-7.3,8.3-4.3.3-8.1-3-8.3-7.4h0ZM15.9,24.8c3.5-.2,6.1-3.2,5.9-6.7-.2-3.5-3.2-6.1-6.6-5.9-3.5.2-6.1,3.2-5.9,6.6.2,3.5,3.2,6.2,6.7,5.9ZM12.2,18.9c0,1.3,1.4,2.8,3.5,2.7,2.1-.1,3.2-1.8,3.1-3.1h1.2c.1,2.3-1.6,4.3-4.2,4.5-2.5.2-4.6-1.6-4.7-4h1.2c0,0,0,0,0,0ZM13.4,14.3c.6,0,1.1.7,1.2,2,0,1.3-.3,2.1-.9,2.1-.6,0-1.1-.7-1.2-2,0-1.3.3-2.1.9-2.1ZM16.3,16.9c0-.3.4-.7.9-.7.5,0,.9.3,1,.6h.6c0-1-.8-1.9-1.6-1.8-.8,0-1.4,1-1.4,2h.6s0,0,0,0Z"/>
    </g>
  </g>
</svg>