<svg width="36" height="41" viewBox="0 0 36 41" fill="none" xmlns="http://www.w3.org/2000/svg">
<g clip-path="url(#clip0_143_1497)">
<path d="M26.6972 38.7724C34.6477 35.2995 37.2002 24.3047 32.3983 14.2148C27.5964 4.12479 17.2585 -1.23945 9.30797 2.23337C1.35742 5.7062 -1.19506 16.701 3.60684 26.791C8.40874 36.8809 18.7466 42.2452 26.6972 38.7724Z" fill="#6A37CC" stroke="#6A37CC" stroke-width="0.62" stroke-miterlimit="10"/>
<path d="M9.39287 20.9762C9.11311 16.4312 12.7322 12.5135 17.5179 12.2455C22.2441 11.9775 26.3333 15.4447 26.6131 20.0124C26.8929 24.5802 23.2738 28.4922 18.5298 28.7602C13.7619 29.0282 9.67858 25.561 9.39287 20.9762ZM18.4286 27.1578C22.25 26.9411 25.1488 23.7818 24.9226 20.1037C24.6964 16.4426 21.4167 13.6483 17.6131 13.8593C13.7679 14.076 10.8512 17.2182 11.0774 20.8792C11.3036 24.5631 14.5833 27.3745 18.4286 27.1578ZM14.3869 20.8849C14.4703 22.2193 15.8869 23.8389 18.2203 23.7077C20.5536 23.5765 21.7262 21.8544 21.6429 20.48L22.9167 20.4059C23.0714 22.9265 21.1131 25.0535 18.3095 25.2075C15.4881 25.3672 13.2619 23.4739 13.1072 20.9534L14.381 20.8792L14.3869 20.8849ZM15.7381 16.0206C16.3631 15.9864 16.9226 16.7277 17.006 18.1363C17.0893 19.5448 16.631 20.3432 16 20.3774C15.3691 20.4116 14.7976 19.6703 14.7083 18.2617C14.625 16.8532 15.0833 16.0548 15.7322 16.0149L15.7381 16.0206ZM18.8631 18.7864C18.9048 18.5012 19.2738 18.085 19.8393 18.0507C20.4107 18.0165 20.8214 18.3929 20.8988 18.6723L21.5238 18.6381C21.4583 17.6059 20.6786 16.6878 19.756 16.7391C18.8572 16.7905 18.1667 17.7884 18.2322 18.8206L18.8572 18.7864H18.8631Z" fill="white"/>
</g>
<defs>
<clipPath id="clip0_143_1497">
<rect width="36" height="41" fill="white"/>
</clipPath>
</defs>
</svg>
