<svg width="35" height="35" viewBox="0 0 35 35" fill="none" xmlns="http://www.w3.org/2000/svg">
<g clip-path="url(#clip0_143_1722)">
<path d="M29.6454 4.23113L12.3005 0.154007L0.151184 13.4148L5.35464 30.7608L22.7074 34.846L34.8488 21.5852L29.6454 4.23113Z" fill="#6A37BC" stroke="#6A37BC" stroke-width="0.34" stroke-miterlimit="10"/>
<path d="M20.3603 27.5185L16.2707 22.9227L10.7092 25.249L9.81812 24.2195L12.7779 18.8699L8.90314 14.1119L9.59534 12.9284L15.491 14.1443L18.7531 8.85943L20.0659 9.15934L20.7979 15.3925L26.5503 16.9164L26.6697 18.2862L21.2116 20.8476L21.5856 26.9836L20.3444 27.5185H20.3603ZM17.0027 21.5609L20.0579 24.9977L19.7795 20.4423L20.1932 19.7371L24.2748 17.8161L19.9863 16.6813L19.4533 16.0653L18.9043 11.3803L16.4537 15.352L15.7058 15.6762L11.306 14.7684L14.2021 18.3268L14.2737 19.1535L12.0857 23.1091L16.2071 21.3907L17.0107 21.5771L17.0027 21.5609Z" fill="white"/>
</g>
<defs>
<clipPath id="clip0_143_1722">
<rect width="35" height="35" fill="white"/>
</clipPath>
</defs>
</svg>
