<?xml version="1.0" encoding="UTF-8"?>
<svg id="Layer_1" data-name="Layer 1" xmlns="http://www.w3.org/2000/svg" version="1.1" xmlns:xlink="http://www.w3.org/1999/xlink" viewBox="0 0 30 30">
  <defs>
    <style>
      .cls-1 {
        fill: none;
      }

      .cls-1, .cls-2 {
        stroke-width: 0px;
      }

      .cls-3 {
        clip-path: url(#clippath);
      }

      .cls-2 {
        fill: #231f20;
      }

      .cls-4 {
        fill: #fff;
        stroke: #231f20;
        stroke-miterlimit: 10;
        stroke-width: .3px;
      }
    </style>
    <clipPath id="clippath">
      <rect class="cls-1" y="0" width="30" height="30"/>
    </clipPath>
  </defs>
  <g class="cls-3">
    <g>
      <path class="cls-4" d="M25.4,3.6L10.5.1.1,11.5l4.5,14.9,14.9,3.5,10.4-11.4-4.5-14.9Z"/>
      <path class="cls-2" d="M17.5,23.6l-3.5-3.9-4.8,2-.8-.9,2.5-4.6-3.3-4.1.6-1,5.1,1,2.8-4.5,1.1.3.6,5.3,4.9,1.3v1.2c.1,0-4.6,2.2-4.6,2.2l.3,5.3-1.1.5h0ZM14.6,18.5l2.6,2.9-.2-3.9.4-.6,3.5-1.6-3.7-1-.5-.5-.5-4-2.1,3.4-.6.3-3.8-.8,2.5,3.1v.7c0,0-1.8,3.4-1.8,3.4l3.5-1.5.7.2h0Z"/>
    </g>
  </g>
</svg>