<svg viewBox="0 0 30 30" fill="none" xmlns="http://www.w3.org/2000/svg">
<g clip-path="url(#clip0_194_2539)">
<path d="M25.4103 3.62669L10.5432 0.132019L0.129517 11.4984L4.58962 26.3664L19.4635 29.868L29.8704 18.5016L25.4103 3.62669Z" fill="white" stroke="#6A37BC" stroke-width="0.34" stroke-miterlimit="10"/>
<path d="M17.4516 23.5873L13.9463 19.648L9.1793 21.642L8.4155 20.7596L10.9524 16.1742L7.63123 12.0959L8.22454 11.0815L13.278 12.1237L16.0741 7.59381L17.1993 7.85087L17.8267 13.1936L22.7574 14.4998L22.8597 15.6739L18.1814 17.8694L18.5019 23.1288L17.438 23.5873H17.4516ZM14.5737 18.4808L17.1925 21.4266L16.9538 17.522L17.3084 16.9176L20.8069 15.271L17.1311 14.2983L16.6742 13.7703L16.2036 9.75453L14.1032 13.1589L13.4621 13.4368L9.69078 12.6587L12.1732 15.7087L12.2345 16.4173L10.3591 19.8078L13.8917 18.3349L14.5805 18.4947L14.5737 18.4808Z" fill="#6A37BC"/>
</g>
<defs>
<clipPath id="clip0_194_2539">
<rect width="30" height="30" fill="white"/>
</clipPath>
</defs>
</svg>
