<?xml version="1.0" encoding="UTF-8"?>
<svg id="Layer_2" data-name="Layer 2" xmlns="http://www.w3.org/2000/svg" version="1.1" viewBox="0 0 66.1 49">
  <defs>
    <style>
      .cls-1 {
        fill: #fff;
        stroke-width: 0px;
      }
    </style>
  </defs>
  <g id="Layer_1-2" data-name="Layer 1-2">
    <path class="cls-1" d="M66.1,4.5c0-2.3-1.7-3.9-4.3-3.9-5.8,0-15.3,7.5-22.4,17.9l-7.2,2.5c2.3-4.9,7.6-14.5,10.3-17.5,3,0,5.2-1,5.2-2.4S47.1,0,46.2,0C44.9,0,43.6.7,42.1,2c-15,.3-28.5,8.4-28.5,16.9s1.7,4.2,4.2,4.2c3.8,0,7.1-4.4,7.6-10.1v-.3s-1.4,0-1.4,0v.3c-.3,4.5-3.2,8.7-6.2,8.7s-2.7-1.1-2.7-2.8c0-7.6,12.4-14.9,25.6-15.4-2.7,3.2-7.2,11.5-10.4,18.1C8.5,29,0,34.9,0,42.5s2.7,6.5,6.5,6.5c7.7,0,15.6-8.4,24.8-26.4l6.8-2.3c-.8,1.2-1.6,2.6-2.3,4.1-1.2,0-2.5.6-2.5,1.9s.6,1.2,1.3,1.2,1.5-.5,2-1.5c2,.8,2.8,2.8,2.8,6.5s-.1,2.9-.2,4.4c-.1,1.5-.2,2.9-.2,4.2,0,4.4,1.4,6.3,4.6,6.3s5.6-2.4,10.1-7.7l-1.1-.8c-4.2,4.8-7.1,7.1-9,7.1s-3.1-.8-3.1-5,.1-2.6.2-4c.1-1.5.2-3,.2-4.5,0-4.2-1.1-6.5-3.7-7.7,1-2,2-3.6,3-5.1,20.1-6.9,25.8-10.4,25.9-15.1ZM61.8,2.1c1.8,0,2.8.9,2.8,2.5,0,3.9-5.4,7-23,13.2,6.5-8.9,15.2-15.7,20.2-15.7ZM6.5,47.6c-3,0-5.1-2.1-5.1-5.1,0-6.6,8.1-12.2,28-19.1-8.6,16.3-16.1,24.3-22.9,24.3Z"/>
  </g>
</svg>