<svg width="199" height="35" viewBox="0 0 199 35" fill="none" xmlns="http://www.w3.org/2000/svg">
<g clip-path="url(#clip0_143_1453)">
<path d="M40.9901 5.06519C41.4911 5.06519 41.9755 4.47923 41.9755 3.88763C41.9755 3.51577 41.7278 3.2735 41.3424 3.2735C40.8415 3.2735 40.3571 3.85946 40.3571 4.45106C40.3571 4.82292 40.6048 5.06519 40.9901 5.06519Z" fill="#6A37CC"/>
<path d="M75.7212 9.83741H74.9725L74.923 9.91066C65.9884 22.5934 63.1808 25.8725 61.2541 25.8725C60.4613 25.8725 60.0264 25.4049 60.0264 24.5485C60.0264 22.8469 60.6265 21.4327 66.9407 10.2712L66.9627 10.2262V9.83178H66.2416L61.2816 16.5591L60.5935 17.5056C56.4097 23.2075 53.7783 25.8669 52.2919 25.8669C51.6313 25.8669 51.2295 25.388 51.2295 24.6104C51.2295 24.0752 51.2295 22.8187 52.8369 19.7255L57.5437 10.6206H62.0963L62.5698 9.83178H57.9235L60.098 5.66243L60.1145 5.23422H59.4484L56.9051 9.83178H48.532L50.7065 5.66243L50.723 5.23422H50.0569L47.5136 9.83178H43.6491L43.0546 10.6206H46.9301C45.1795 12.9363 43.2417 15.528 41.6783 17.6747C37.5716 23.2582 34.9732 25.8725 33.5089 25.8725C32.8483 25.8725 32.4464 25.4387 32.4464 24.7457C32.4464 23.9738 32.4464 22.368 38.6506 10.26L38.6671 9.83178H37.9459L32.9749 16.6042H32.9639L32.2758 17.5451C28.114 23.23 25.4716 25.8725 23.9798 25.8725C22.9503 25.8725 22.2622 25.3992 22.2622 23.0835C22.2622 22.3905 22.3227 21.6186 22.3888 20.8017C22.4549 19.9622 22.5209 19.0889 22.5209 18.2832C22.5209 15.9111 21.9044 14.5984 20.4731 13.9617C21.0346 12.8574 21.5796 11.9052 22.1356 11.0657C33.1731 7.14424 36.366 5.22859 36.366 2.54668C36.366 1.22263 35.4411 0.366227 34.0098 0.366227C30.7894 0.366227 25.6092 4.59192 21.6842 10.429L17.7261 11.8094C18.9812 9.07115 21.9044 3.62846 23.3742 1.95509C25.0202 1.93818 26.2093 1.37476 26.2093 0.614134C26.2093 0.247907 25.901 0 25.4496 0C24.7284 0 23.9908 0.371861 23.198 1.13249C14.9681 1.32405 7.4923 5.84272 7.4923 10.6431C7.4923 12.0686 8.41713 13.0208 9.78237 13.0208C11.8523 13.0208 13.6909 10.5361 13.9607 7.35834L13.9772 7.16114H13.1679L13.1569 7.32453C12.9973 9.88812 11.3843 12.2263 9.78237 12.2263C8.87955 12.2263 8.29602 11.6066 8.29602 10.6375C8.29602 6.37798 15.1002 2.23117 22.4108 1.96072C20.9245 3.75241 18.4582 8.46265 16.6911 12.17C4.68475 16.3619 0 19.6692 0 23.9512C0 26.1148 1.48084 27.6304 3.59476 27.6304C7.81159 27.6304 12.1605 22.9033 17.2692 12.7616L21.0346 11.4488C20.6052 12.1531 20.1373 12.9419 19.7409 13.7758C19.0858 13.8039 18.3757 14.0913 18.3757 14.8181C18.3757 15.1956 18.6839 15.4942 19.0693 15.4942C19.4932 15.4942 19.8785 15.19 20.1648 14.6378C21.2438 15.0942 21.7337 16.2267 21.7337 18.2832C21.7337 19.072 21.6621 19.9227 21.6016 20.7453C21.5355 21.5736 21.4695 22.3567 21.4695 23.0779C21.4695 25.5514 22.2457 26.6557 23.9853 26.6557C25.7248 26.6557 28.5049 24.0132 32.7822 18.0972L36.2229 13.4433C32.0281 21.7764 31.6592 23.6582 31.6592 24.7457C31.6592 25.9063 32.3914 26.6557 33.5254 26.6557C35.331 26.6557 38.0725 23.9625 42.427 17.9169L42.5756 17.7085L46.1484 12.9081L42.8178 19.2635C41.2214 22.3004 41.0397 23.7709 41.0397 24.6161C41.0397 25.8612 41.7719 26.6613 42.9059 26.6613C44.7061 26.6613 47.453 23.9681 51.8075 17.9226L51.9561 17.7141L55.5289 12.9137L52.1983 19.2692C50.6019 22.306 50.4202 23.7766 50.4202 24.6217C50.4202 25.8669 51.1524 26.6669 52.2864 26.6669C54.0866 26.6669 56.8336 23.9738 61.188 17.9282L61.6724 17.2577L63.968 14.1307C60.1531 20.7735 59.2172 22.7286 59.2172 24.5541C59.2172 25.3203 59.4815 25.9345 59.9659 26.3007C57.8685 27.9628 56.5748 30.1264 56.5748 31.9913C56.5748 33.8562 57.7199 35.0056 59.3548 35.0056C62.5422 35.0056 63.9625 33.1632 70.2272 20.9425L75.6992 10.2769L75.7212 9.84868V9.83741ZM59.3603 34.2112C58.1768 34.2112 57.384 33.3323 57.384 32.0251C57.384 30.2221 58.5841 28.3009 60.7696 26.6162C60.9127 26.6444 61.0669 26.6726 61.2486 26.6726C63.3735 26.6726 65.8838 23.9681 73.0623 13.7589L69.5281 20.6439C63.1698 33.0393 62.0027 34.2112 59.3603 34.2112ZM56.3326 10.6318C54.582 12.9475 52.6443 15.5393 51.0808 17.6859C46.9741 23.2695 44.3757 25.8838 42.9114 25.8838C42.2508 25.8838 41.849 25.4049 41.849 24.6273C41.849 24.0921 41.849 22.8356 43.4564 19.7424L48.1632 10.6375H56.3326V10.6318ZM34.0209 1.16066C34.9952 1.16066 35.5733 1.67901 35.5733 2.55232C35.5733 4.73841 32.5951 6.50193 22.8898 10.0008C26.4625 5.00885 31.2849 1.16629 34.0154 1.16629L34.0209 1.16066ZM16.2012 13.1673C11.4779 22.368 7.34917 26.8416 3.59476 26.8416C1.92675 26.8416 0.803729 25.6809 0.803729 23.9512C0.803729 20.227 5.27378 17.0943 16.2012 13.1673Z" fill="#6A37CC"/>
<path d="M106.5 0.614134C106.5 0.247907 106.191 0 105.74 0C105.019 0 104.281 0.371861 103.488 1.13249C95.0933 1.32968 87.4523 5.84836 87.4523 10.6431C87.4523 12.0686 88.3772 13.0208 89.7424 13.0208C91.8123 13.0208 93.6509 10.5361 93.9262 7.35834L93.9427 7.16114H93.1335L93.1225 7.32453C92.9628 9.88812 91.3499 12.2263 89.7479 12.2263C88.8451 12.2263 88.2616 11.6066 88.2616 10.6375C88.2616 6.37798 95.2914 2.22553 102.844 1.96072C101.639 3.44817 100.18 6.28783 97.9999 10.6262C89.0433 28.4474 84.4686 34.1661 79.2003 34.1661C76.5359 34.1661 74.945 32.3463 74.945 29.3094C74.945 23.4272 80.6537 14.7505 85.7788 14.7505C87.0945 14.7505 87.8817 15.5956 87.8817 17.0042C87.8817 17.7479 87.6065 18.7508 87.1881 19.5509L87.0505 19.81H87.8982L87.9478 19.7143C88.3882 18.8804 88.6854 17.7873 88.6854 16.9929C88.6854 15.1111 87.5734 13.9448 85.7733 13.9448C83.208 13.9448 80.3344 15.8661 77.8846 19.2184C75.5725 22.3849 74.1357 26.2556 74.1357 29.3263C74.1357 32.7857 76.0735 34.938 79.1948 34.938C84.898 34.938 89.4451 29.3488 98.666 11.0037C100.973 6.41742 102.459 3.49887 103.802 1.93255C105.349 1.92128 106.505 1.35222 106.505 0.597231L106.5 0.614134Z" fill="#6A37CC"/>
<path d="M186.845 5.06519C187.346 5.06519 187.83 4.47923 187.83 3.88763C187.83 3.51577 187.583 3.2735 187.197 3.2735C186.696 3.2735 186.212 3.85946 186.212 4.45106C186.212 4.82292 186.46 5.06519 186.845 5.06519Z" fill="#6A37CC"/>
<path d="M198.983 1.2677L199 0.839493H198.339L195.389 6.09625C194.271 8.11895 190.341 13.8659 187.5 17.7535C183.426 23.2864 180.839 25.8781 179.38 25.8781C178.72 25.8781 178.318 25.4443 178.318 24.7513C178.318 23.9794 178.318 22.3736 184.522 10.2656L184.538 9.8374H183.823L178.863 16.5647L178.175 17.5056C173.897 23.3652 171.481 25.8669 170.077 25.8669C169.455 25.8669 169.113 25.4668 169.113 24.74C169.113 23.7089 169.923 21.8496 171.987 18.0916C174.134 14.2039 175.004 12.5756 175.004 11.4375C175.004 10.1755 174.205 9.35849 172.972 9.35849C170.506 9.35849 167.655 12.3221 160.608 22.3567L166.68 10.2487L166.697 9.8205H165.981L161.021 16.5478L160.333 17.4887C156.083 23.2638 151.497 25.85 148.844 25.85C147.506 25.85 146.774 25.1344 146.774 23.8273C146.774 22.599 147.27 20.9369 148.211 19.0269C154.866 18.0465 159.865 14.8744 159.865 11.6291C159.865 10.2656 158.797 9.35285 157.217 9.35285C155.125 9.35285 152.367 11.4037 149.846 14.8406C149.367 15.4886 148.927 16.1478 148.525 16.8126L148.024 17.4944C143.84 23.1962 141.209 25.8556 139.722 25.8556C139.062 25.8556 138.66 25.3767 138.66 24.5992C138.66 23.4554 139.216 21.7651 140.267 19.7143L149.807 1.24516L149.824 0.816956H149.158L142.75 13.3137C142.822 12.9193 142.855 12.5475 142.855 12.1643C142.855 10.4572 141.88 9.35285 140.372 9.35285C138.28 9.35285 135.522 11.4037 133.001 14.8406C132.522 15.4886 132.081 16.1534 131.679 16.8126L130.991 17.7592C130.27 18.7226 129.439 19.2522 128.657 19.2522C127.787 19.2522 127.264 18.424 127.264 17.0323C127.264 15.004 128.597 12.4799 130.826 10.2938L130.881 10.2431V9.8205H130.055L129.995 9.83177C127.468 10.7952 125.228 12.2263 118.077 22.368L124.154 10.2487L124.171 9.8205H123.455L118.495 16.5478L117.807 17.4887C113.623 23.1906 110.992 25.85 109.511 25.85C108.85 25.85 108.448 25.371 108.448 24.5935C108.448 23.4047 109.021 21.6693 110.056 19.7086L114.944 10.2431L114.961 9.81486H114.289L112.544 13.263C112.616 12.8855 112.643 12.5249 112.643 12.1587C112.643 10.4515 111.663 9.34722 110.16 9.34722C108.069 9.34722 105.311 11.3981 102.789 14.835C100.433 18.0409 98.9137 21.5679 98.9137 23.8329C98.9137 25.5119 99.9266 26.6444 101.429 26.6444C103.455 26.6444 106.147 24.6555 108.41 21.5736C107.903 22.7793 107.645 23.8104 107.645 24.5992C107.645 25.8443 108.377 26.6444 109.511 26.6444C111.311 26.6444 114.058 23.9512 118.412 17.9057L118.682 17.5338L121.743 13.3926L115.528 25.7711L115.511 26.1993H116.293L116.343 26.126C123.345 16.0914 126.29 12.5644 129.191 10.9812C127.463 12.9813 126.45 15.1956 126.45 17.0492C126.45 18.9029 127.314 20.0636 128.641 20.0636C129.186 20.0636 129.736 19.8776 130.254 19.5227C129.532 21.1623 129.12 22.6779 129.12 23.8554C129.12 25.5344 130.133 26.6669 131.635 26.6669C133.661 26.6669 136.353 24.678 138.616 21.5961C138.109 22.8018 137.851 23.8329 137.851 24.6217C137.851 25.8669 138.583 26.6669 139.717 26.6669C141.236 26.6669 143.433 24.74 146.692 20.5143C146.224 21.7651 145.959 22.9201 145.959 23.8554C145.959 25.5851 147.06 26.6669 148.838 26.6669C152.119 26.6669 156.843 23.3371 160.498 18.5029L160.526 18.4691C160.658 18.2888 160.801 18.1085 160.933 17.9226L161.17 17.5958L164.263 13.4095L158.065 25.7767L158.048 26.2049H158.83L158.88 26.1317C167.539 13.7532 170.704 10.1698 172.972 10.1698C173.765 10.1698 174.2 10.6262 174.2 11.4601C174.2 12.3897 173.341 14.0744 171.293 17.7366C169.168 21.5116 168.31 23.5455 168.31 24.7625C168.31 25.9795 168.97 26.6726 170.082 26.6726C171.811 26.6726 174.25 24.2217 178.791 17.9338L179.044 17.5789L182.094 13.4546C177.899 21.7877 177.531 23.6695 177.531 24.7625C177.531 25.9232 178.263 26.6726 179.397 26.6726C181.197 26.6726 183.944 23.9794 188.298 17.9338L188.953 17.0267C190.231 15.2519 191.733 13.0715 193.286 10.7276L188.827 19.2804C187.23 22.3173 187.049 23.7878 187.049 24.633C187.049 25.8781 187.781 26.6782 188.915 26.6782C190.831 26.6782 193.99 24.1822 194.69 18.824L194.717 18.6268H193.974L193.957 18.7846C193.434 22.9765 190.886 25.9007 188.915 25.9007C188.254 25.9007 187.852 25.4218 187.852 24.6442C187.852 24.109 187.852 22.8525 189.46 19.7593L198.978 1.27896L198.983 1.2677ZM101.407 25.8781C100.334 25.8781 99.6899 25.1231 99.6899 23.8554C99.6899 19.3818 106.142 10.1642 110.138 10.1642C111.212 10.1642 111.856 10.9192 111.856 12.1869C111.856 16.6605 105.404 25.8781 101.407 25.8781ZM157.201 10.1586C158.34 10.1586 159.045 10.7276 159.045 11.646C159.045 14.3673 154.591 17.1394 148.629 18.1817C150.842 14.1814 154.575 10.1586 157.195 10.1586H157.201ZM131.635 25.8781C130.562 25.8781 129.918 25.1231 129.918 23.8554C129.918 19.3818 136.37 10.1642 140.366 10.1642C141.44 10.1642 142.084 10.9192 142.084 12.1869C142.084 16.6605 135.632 25.8781 131.635 25.8781Z" fill="#6A37CC"/>
</g>
<defs>
<clipPath id="clip0_143_1453">
<rect width="199" height="35" fill="white"/>
</clipPath>
</defs>
</svg>
